<?xml version="1.0" encoding="UTF-8" standalone="no"?>
<svg xmlns:dc="http://purl.org/dc/elements/1.1/" xmlns:cc="http://creativecommons.org/ns#" xmlns:rdf="http://www.w3.org/1999/02/22-rdf-syntax-ns#" xmlns:svg="http://www.w3.org/2000/svg" xmlns="http://www.w3.org/2000/svg" xmlns:sodipodi="http://sodipodi.sourceforge.net/DTD/sodipodi-0.dtd" xmlns:inkscape="http://www.inkscape.org/namespaces/inkscape" sodipodi:docname="music.svg" inkscape:version="1.0 (4035a4fb49, 2020-05-01)" id="svg8" version="1.1" viewBox="0 0 168.42781 168.44308" height="168.44308mm" width="168.42781mm">
  <defs id="defs2"/>
  <sodipodi:namedview inkscape:window-maximized="0" inkscape:window-y="0" inkscape:window-x="124" inkscape:window-height="1030" inkscape:window-width="1778" showgrid="false" inkscape:document-rotation="0" inkscape:current-layer="layer1" inkscape:document-units="mm" inkscape:cy="323.32913" inkscape:cx="373.23448" inkscape:zoom="0.98994949" inkscape:pageshadow="2" inkscape:pageopacity="0.0" borderopacity="1.0" bordercolor="#666666" pagecolor="#ffffff" id="base"/>
  <metadata id="metadata5">
    <rdf:RDF>
      <cc:Work rdf:about="">
        <dc:format>image/svg+xml</dc:format>
        <dc:type rdf:resource="http://purl.org/dc/dcmitype/StillImage"/>
        <dc:title/>
      </cc:Work>
    </rdf:RDF>
  </metadata>
  <g transform="translate(-7.3563583,-20.192218)" id="layer1" inkscape:groupmode="layer" inkscape:label="Calque 1">
    <path id="path847" d="m 57.074412,188.22795 c -1.42692,-0.78046 -1.5875,-1.35437 -1.5875,-5.67332 0,-3.96971 0.0439,-4.22588 0.86591,-5.04785 l 0.8659,-0.86591 h 46.210258 46.21025 l 0.98981,0.8514 c 0.98373,0.84617 0.98981,0.87779 0.98981,5.14582 0,4.26804 -0.006,4.29966 -0.98981,5.14582 l -0.98981,0.8514 -45.92963,-0.0107 c -32.564578,-0.008 -46.134948,-0.12303 -46.635188,-0.39664 z m 25.37675,-18.04684 c -0.0976,-0.2544 -0.13233,-2.27846 -0.0771,-4.49792 l 0.10037,-4.03537 21.078478,-0.091 21.07847,-0.091 v 4.58889 4.58889 h -21.00135 c -16.997978,0 -21.035188,-0.0882 -21.178848,-0.46254 z m -50.13972,-15.55745 c -0.98894,-0.8498 -0.98991,-0.8551 -1.10403,-5.99723 l -0.11422,-5.14667 h 72.345468 72.34547 v 4.96602 4.96603 l -1.0312,1.0312 -1.03119,1.03119 H 103.5115 33.301252 Z m -0.93102,-17.37631 c -0.26392,-0.26392 -0.33008,-29.89121 -0.0673,-30.15396 0.0923,-0.0923 1.71951,0.34822 3.61598,0.97897 9.2791,3.08619 20.54211,2.92962 30.30494,-0.42128 13.91876,-4.77733 25.27849,-16.41569 29.93567,-30.66993 3.4181,-10.46177 2.86916,-23.52719 -1.39345,-33.1657 -0.49218,-1.11291 -0.89488,-2.16248 -0.89488,-2.33236 0,-0.17493 17.555678,-0.30402 40.481248,-0.29766 31.26551,0.009 40.60868,0.10905 41.04099,0.44097 1.39846,1.07371 1.38054,0.4386 1.38054,48.9135 v 46.94264 H 103.6999 c -39.646338,0 -72.190088,-0.10584 -72.319438,-0.23519 z M 165.746,127.4444 c 0.85213,-0.85213 1.1177,-2.30076 0.64677,-3.528 -0.42602,-1.11019 -2.08926,-1.60331 -5.40779,-1.60331 h -3.19252 V 111.34985 100.3866 l -1.0312,-1.0312 c -1.31573,-1.31573 -2.88635,-1.37904 -4.10011,-0.16528 l -0.86591,0.8659 v 11.12854 11.12853 h -4.58611 -4.58611 V 96.1915 70.06991 l -0.86591,-0.8659 c -1.1781,-1.17811 -3.0873,-1.17811 -4.2654,0 l -0.86591,0.8659 v 26.12159 26.12159 h -4.58612 -4.58611 V 102.05398 81.79486 l -0.92952,-0.73116 c -1.39991,-1.10118 -3.04799,-0.96065 -4.1544,0.35424 l -0.9133,1.0854 v 19.90488 19.90487 h -4.40972 -4.40972 v -9.18974 c 0,-10.15844 -0.13183,-10.87936 -2.11589,-11.57101 -1.23277,-0.42975 -1.9589,-0.24949 -3.08758,0.76648 -0.78636,0.70782 -0.79375,0.80433 -0.79375,10.35438 v 9.63989 h -4.58612 -4.586108 V 109.80915 97.30522 l -0.83622,-0.97218 c -1.1718,-1.36229 -3.15297,-1.36229 -4.32477,0 l -0.83623,0.97218 v 12.50393 12.50394 h -4.58611 -4.58611 v -6.59184 c 0,-6.28247 -0.036,-6.63017 -0.76705,-7.40834 -0.49606,-0.52802 -1.17136,-0.81648 -1.91143,-0.81648 -3.0001,0 -3.31875,0.82816 -3.31875,8.62553 v 6.19113 h -4.40972 -4.40972 v -3.19252 c 0,-3.31853 -0.49312,-4.98176 -1.6033,-5.40778 -1.17593,-0.45124 -2.7745,-0.20641 -3.57744,0.54791 -0.75122,0.70574 -0.81648,1.05821 -0.81648,4.40972 v 3.64267 h -4.58611 -4.58611 v -2.0853 c 0,-1.89549 -0.0988,-2.16845 -1.08541,-2.99862 -1.42236,-1.19683 -2.60171,-1.16101 -3.88062,0.1179 -0.8932,0.8932 -1.0312,1.29447 -1.0312,2.99861 v 1.96741 h -1.96741 c -1.70414,0 -2.10541,0.138 -2.99861,1.0312 -1.31573,1.31573 -1.37905,2.88636 -0.16529,4.10011 l 0.86591,0.86592 h 61.415408 61.4154 z M 42.711212,103.77439 c -6.17168,-0.96098 -13.31443,-3.9926 -18.45345,-7.83223 -8.33424,-6.22695 -13.87121,-14.91929 -16.2718301,-25.54468 -0.84673,-3.74771 -0.8377,-12.55167 0.017,-16.52327 C 11.602982,37.14459 24.310102,24.43848 41.023062,20.8567 c 4.10694,-0.88016 12.44404,-0.88713 16.50862,-0.0138 5.61138,1.20569 11.0449,3.50254 15.73102,6.6498 3.11706,2.09346 9.00541,8.11304 11.12787,11.37586 8.10362,12.45755 9.26471,27.41585 3.18066,40.97607 -3.70883,8.26625 -12.3115,16.86892 -20.57774,20.57773 -7.65968,3.43666 -16.18264,4.61321 -24.28224,3.35203 z m -6.4553,-18.63186 c 3.6497,-1.67089 6.2067,-5.10576 6.89898,-9.26753 0.18927,-1.13787 0.33231,-6.11401 0.31786,-11.05809 -0.0245,-8.36809 0.018,-9.00707 0.61407,-9.24734 0.81091,-0.32686 21.94607,-4.51954 22.77717,-4.51842 0.55769,7.1e-4 0.61736,0.46508 0.61736,4.80448 0,5.38353 0.29519,4.98335 -2.82222,3.82592 -1.16569,-0.4328 -2.25398,-0.54096 -4.09582,-0.40709 -7.14539,0.51937 -12.11764,6.79673 -11.00479,13.8933 0.63584,4.05471 3.72974,7.82882 7.62114,9.29668 1.62843,0.61425 2.54878,0.73009 4.83363,0.60835 4.6807,-0.24938 8.19053,-2.60459 10.3084,-6.91726 l 0.98049,-1.9966 0.10331,-18.34219 c 0.11407,-20.25492 0.10361,-20.36638 -2.08483,-22.20783 -2.33171,-1.962 -2.63722,-1.94936 -15.73766,0.6511 -6.55278,1.30074 -12.73074,2.59434 -13.72878,2.87467 -2.11055,0.5928 -3.76454,2.23027 -4.33777,4.29447 -0.21987,0.79175 -0.37085,5.59558 -0.37202,11.83675 l -0.002,10.5042 -1.01961,-0.52726 c -1.50168,-0.77655 -4.72892,-1.18869 -6.77511,-0.86523 -3.89583,0.61585 -7.36727,3.27681 -9.06621,6.9495 -1.32624,2.86701 -1.34138,6.82888 -0.0367,9.61042 2.9624,6.3159 9.89791,9.00371 16.01111,6.205 z m -7.05095,-5.32391 c -4.72821,-1.72515 -5.30104,-8.24891 -0.93954,-10.70021 3.99745,-2.24669 8.87704,0.47781 8.87704,4.95646 0,4.28968 -3.99654,7.18166 -7.9375,5.74375 z m 29.63412,-3.21685 c -2.31616,-1.20768 -3.35217,-2.89668 -3.35217,-5.465 0,-4.14948 4.05669,-6.94535 7.93072,-5.46585 3.94423,1.50632 5.12824,6.15386 2.39522,9.40188 -1.68511,2.00264 -4.76873,2.67871 -6.97377,1.52897 z M 43.374352,46.2111 c 0.0497,-2.62231 0.15397,-3.11586 0.70556,-3.33845 0.81482,-0.3288 21.9477,-4.52263 22.78408,-4.5215 0.54141,7.4e-4 0.61736,0.38506 0.61736,3.12394 v 3.1231 l -11.72986,2.3451 c -6.45142,1.2898 -11.88861,2.34508 -12.08264,2.34507 -0.21268,-10e-6 -0.32963,-1.22211 -0.2945,-3.07726 z" style="fill:#eeeeee;stroke-width:0.352778;fill-opacity:1"/>
  </g>
</svg>