<?xml version="1.0" encoding="UTF-8" standalone="no"?>
<svg xmlns:dc="http://purl.org/dc/elements/1.1/" xmlns:cc="http://creativecommons.org/ns#" xmlns:rdf="http://www.w3.org/1999/02/22-rdf-syntax-ns#" xmlns:svg="http://www.w3.org/2000/svg" xmlns="http://www.w3.org/2000/svg" xmlns:sodipodi="http://sodipodi.sourceforge.net/DTD/sodipodi-0.dtd" xmlns:inkscape="http://www.inkscape.org/namespaces/inkscape" inkscape:version="1.0 (4035a4fb49, 2020-05-01)" height="495.33932" width="461.66235" sodipodi:docname="drawing.svg" xml:space="preserve" viewBox="0 0 461.66236 495.33934" y="0px" x="0px" id="Capa_1" version="1.1"><metadata id="metadata39"><rdf:RDF><cc:Work rdf:about=""><dc:format>image/svg+xml</dc:format><dc:type rdf:resource="http://purl.org/dc/dcmitype/StillImage"/><dc:title/></cc:Work></rdf:RDF></metadata><defs id="defs37"/><sodipodi:namedview inkscape:current-layer="Capa_1" inkscape:window-maximized="1" inkscape:window-y="-9" inkscape:window-x="-9" inkscape:cy="238.91889" inkscape:cx="142.51576" inkscape:zoom="0.80922598" showgrid="false" id="namedview35" inkscape:window-height="1001" inkscape:window-width="1920" inkscape:pageshadow="2" inkscape:pageopacity="0" guidetolerance="10" gridtolerance="10" objecttolerance="10" borderopacity="1" bordercolor="#666666" pagecolor="#ffffff"/>
<path style="fill:#eeeeee;fill-opacity:1" id="path2" d="m 179.46085,405.261 277.148,-277.124 c 6.738,-6.742 6.738,-17.668 0,-24.408 L 357.96685,5.056 C 354.72485,1.824 350.33785,0 345.75985,0 c -4.584,0 -8.951,1.824 -12.193,5.056 L 56.417851,282.211 c -1.871,1.863 -3.271,4.121 -4.129,6.62 L 0.92185109,438.832 c -2.12899999,6.233 -0.498,13.136 4.14500001,17.789 3.258,3.273 7.6489999,5.023 12.1289999,5.04 0.549,1.041 1.369,2.016 2.58,2.856 8.873,6.191 18.16,10.989 27.627,15.192 44.113,19.555 93.688999,18.91 141.606999,8.209 36.273,-8.121 70.656,-22.531 106.008,-33.773 48.125,-15.313 100.545,-22.667 150.541,-28.538 11.065,-1.306 9.227,-18.468 -1.84,-17.169 -68.012,8 -134.779,21.635 -199.277,44.717 -54.258,19.394 -116.512,34.867 -172.089999,18.005 -11.867,-3.588 -23.416,-8.716 -34.514,-15.538 L 172.86285,409.39 c 2.469,-0.863 4.76,-2.267 6.598,-4.129 z m -8.791,-40.006 -18.32,-18.307 249.371,-249.292 18.262,18.274 z m 175.09,-323.579 18.303,18.304 -249.34,249.35 -18.306999,-18.314 z m -270.874999,364.769 -19.66,-19.652 22.498,-65.674 62.819999,62.836 z"/>















</svg>