<?xml version="1.0" encoding="UTF-8" standalone="no"?>
<svg xmlns:dc="http://purl.org/dc/elements/1.1/" xmlns:cc="http://creativecommons.org/ns#" xmlns:rdf="http://www.w3.org/1999/02/22-rdf-syntax-ns#" xmlns:svg="http://www.w3.org/2000/svg" xmlns="http://www.w3.org/2000/svg" xmlns:sodipodi="http://sodipodi.sourceforge.net/DTD/sodipodi-0.dtd" xmlns:inkscape="http://www.inkscape.org/namespaces/inkscape" width="259.29431mm" height="348.77124mm" viewBox="0 0 259.2943 348.77124" version="1.1" id="svg8" inkscape:version="1.0 (4035a4fb49, 2020-05-01)" sodipodi:docname="games.svg">
  <defs id="defs2">
    <clipPath id="clipPath849" clipPathUnits="userSpaceOnUse">
      <path id="path847" d="M 0,768 H 1024 V 0 H 0 Z"/>
    </clipPath>
    <clipPath id="clipPath935" clipPathUnits="userSpaceOnUse">
      <path id="path933" d="M 0,768 H 1024 V 0 H 0 Z"/>
    </clipPath>
    <clipPath id="clipPath1027" clipPathUnits="userSpaceOnUse">
      <path id="path1025" d="M 0,768 H 1024 V 0 H 0 Z"/>
    </clipPath>
    <clipPath id="clipPath1167" clipPathUnits="userSpaceOnUse">
      <path id="path1165" d="M 0,768 H 1024 V 0 H 0 Z"/>
    </clipPath>
    <clipPath id="clipPath1275" clipPathUnits="userSpaceOnUse">
      <path id="path1273" d="M 0,768 H 1024 V 0 H 0 Z"/>
    </clipPath>
    <clipPath id="clipPath1415" clipPathUnits="userSpaceOnUse">
      <path id="path1413" d="M 0,768 H 1024 V 0 H 0 Z"/>
    </clipPath>
    <clipPath id="clipPath1427" clipPathUnits="userSpaceOnUse">
      <path id="path1425" d="M 0,768 H 1024 V 0 H 0 Z"/>
    </clipPath>
    <clipPath id="clipPath1511" clipPathUnits="userSpaceOnUse">
      <path id="path1509" d="M 0,768 H 1024 V 0 H 0 Z"/>
    </clipPath>
  </defs>
  <sodipodi:namedview id="base" pagecolor="#ffffff" bordercolor="#666666" borderopacity="1.0" inkscape:pageopacity="0.0" inkscape:pageshadow="2" inkscape:zoom="0.47808737" inkscape:cx="302.86541" inkscape:cy="693.5149" inkscape:document-units="mm" inkscape:current-layer="layer1" inkscape:document-rotation="0" showgrid="false" inkscape:window-width="1920" inkscape:window-height="1001" inkscape:window-x="-9" inkscape:window-y="-9" inkscape:window-maximized="1"/>
  <metadata id="metadata5">
    <rdf:RDF>
      <cc:Work rdf:about="">
        <dc:format>image/svg+xml</dc:format>
        <dc:type rdf:resource="http://purl.org/dc/dcmitype/StillImage"/>
        <dc:title/>
      </cc:Work>
    </rdf:RDF>
  </metadata>
  <g inkscape:label="Calque 1" inkscape:groupmode="layer" id="layer1" transform="translate(-246.13665,125.46148)">
    <path transform="matrix(0.26458333,0,0,0.26458333,272.86471,23.309877)" id="path1171" style="fill:#eeeeee;fill-opacity:1;fill-rule:evenodd;stroke:none;stroke-width:3.36559" d="m 387.59766,0 c -33.9285,2.554485 -75.90336,8.8322022 -108.62696,17.283203 -10.4065,2.685744 -23.53185,6.225901 -29.62695,11.109375 -9.4977,7.61297 -7.50972,20.613357 -16.04492,29.623047 -51.4868,10.68239 -116.41625,9.08338 -150.593752,37.03125 -2.3021,1.878 -4.536175,2.49745 -6.171875,4.9375 -1.6929,2.520825 0.125122,5.637365 -3.705078,7.404295 C 33.157915,136.44719 17.874837,184.49252 12.341797,251.81445 9.0738269,291.64622 0,335.02028 0,376.48438 c 0,44.10942 5.2475001,81.64632 14.8125,122.20507 8.36686,35.46323 17.47083,82.08437 46.90625,90.11133 16.5756,4.51661 39.00653,-2.33605 45.67383,-9.875 7.172,-8.11442 10.592,-35.86749 14.8125,-49.37695 10.9112,-34.94158 16.37408,-63.28596 28.39258,-99.98438 4.7018,-14.36432 8.60114,-36.73305 19.74804,-43.20507 12.0926,-7.02062 31.17555,-3.15575 46.90625,1.23632 21.55,6.01433 40.48568,11.88 50.60938,24.68946 14.2129,17.97563 19.45535,61.75508 24.68555,88.875 12.96079,67.15367 18.16188,121.12728 40.73828,185.15429 9.003,25.53139 23.25924,61.43542 44.43554,67.89063 6.1658,1.88137 30.12546,2.62182 39.50196,0 23.125,-6.47203 36.55302,-42.98393 45.67382,-69.1211 20.6277,-59.12673 29.5208,-123.44032 41.9668,-187.6289 6.3576,-32.77414 10.20685,-76.95035 32.08984,-93.8086 7.1082,-5.47581 25.65183,-11.8236 40.73633,-16.05078 15.3976,-4.31467 36.53798,-7.97087 48.14258,-1.23632 10.9617,6.3643 14.64295,28.64472 19.75195,44.43945 10.7497,33.24529 17.41348,63.59975 28.38868,98.75 4.6345,14.8456 7.5568,39.42371 14.8164,48.14062 8.2491,9.91502 28.20325,15.07934 44.43555,11.11133 29.7855,-7.28651 40.42002,-56.01413 48.14062,-87.64062 9.5448,-39.11489 14.8086,-81.31198 14.8086,-120.96875 0,-43.08967 -8.1281,-82.31388 -12.3418,-123.44141 -4.52,-44.11281 -8.21877,-79.67337 -25.92187,-109.85938 -4.1363,-7.0509 -11.76453,-17.56095 -20.98633,-27.15624 -2.8607,-2.98192 -8.3536,-6.32351 -12.3418,-11.10938 -4.8902,-5.86286 -6.4555,-12.006395 -9.875,-13.578125 -1.5616,-0.72023 -1.4139,-0.467025 -2.4707,-1.234375 -30.9736,-22.50235 -81.65978,-25.53421 -129.60938,-32.09375 -6.1421,-0.8414 -14.96967,-1.781375 -18.51367,-3.703125 -8.8078,-4.77577 -9.15087,-22.297493 -16.04687,-28.392578 C 535.46221,18.482935 508.23858,14.51615 487.58398,9.875 464.32098,4.6482351 438.88665,2.083302 414.75195,0 Z m 275.88086,134.16016 c 14.6605,0 26.54101,11.88386 26.54101,26.54101 0,14.65715 -11.88051,26.53906 -26.54101,26.53906 -14.6538,0 -26.53711,-11.88191 -26.53711,-26.53906 0,-14.65715 11.88331,-26.54101 26.53711,-26.54101 z m -532.63477,26.54101 h 29.62695 c 3.4093,0 6.16992,2.76449 6.16992,6.17383 v 37.85547 L 204.5,204.55273 c 3.406,-0.0136 6.18613,2.73519 6.20312,6.14454 l 0.13477,29.625 c 0.019,3.40935 -2.73267,6.18612 -6.13867,6.20312 l -38.0586,0.17773 v 38.05469 c 0,3.40935 -2.76062,6.16992 -6.16992,6.16992 h -29.62695 c -3.406,0 -6.17187,-2.76057 -6.17187,-6.16992 v -37.85937 l -37.857427,0.17773 c -3.406,0.017 -6.182219,-2.73518 -6.199219,-6.14453 l -0.140625,-29.625 c -0.015,-3.40934 2.731832,-6.18222 6.144532,-6.19922 l 38.052739,-0.17773 V 166.875 c 0,-3.40934 2.76587,-6.17383 6.17187,-6.17383 z m 486.96289,22.83789 c 14.6605,0 26.54102,11.87996 26.54102,26.53711 0,14.65715 -11.88052,26.53711 -26.54102,26.53711 -14.6538,0 -26.53711,-11.87996 -26.53711,-26.53711 0,-14.65715 11.88331,-26.53711 26.53711,-26.53711 z m 92.58008,0 c 14.6572,0 26.53906,11.87996 26.53906,26.53711 0,14.65715 -11.88186,26.53711 -26.53906,26.53711 -14.6572,0 -26.54102,-11.87996 -26.54102,-26.53711 0,-14.65715 11.88382,-26.53711 26.54102,-26.53711 z m -162.93945,38.26172 c 18.0665,0 32.71484,14.64639 32.71484,32.71289 0,18.0665 -14.64834,32.71094 -32.71484,32.71094 -18.0631,0 -32.70899,-14.64444 -32.70899,-32.71094 0,-18.0665 14.64589,-32.71289 32.70899,-32.71289 z m -154.84961,6.17383 c 18.4031,0 33.32812,14.92028 33.32812,33.33008 0,18.40642 -14.92502,33.32617 -33.32812,33.32617 -18.4064,0 -33.33008,-14.91975 -33.33008,-33.32617 0,-18.4098 14.92368,-33.33008 33.33008,-33.33008 z m 270.88086,0.002 c 14.6605,0 26.54101,11.87996 26.54101,26.53711 0,14.65715 -11.88051,26.53906 -26.54101,26.53906 -14.6538,0 -26.53711,-11.88191 -26.53711,-26.53906 0,-14.65715 11.88331,-26.53711 26.53711,-26.53711 z m -59.86524,53.07813 c 18.403,0 33.33008,14.91972 33.33008,33.32617 0,18.40977 -14.92708,33.32812 -33.33008,33.32812 -18.4064,0 -33.33008,-14.91835 -33.33008,-33.32812 0,-18.40645 14.92368,-33.32617 33.33008,-33.32617 z m -211.5957,105.30859 c 24.37961,0 44.10742,19.72777 44.10742,44.10742 0,24.37962 -19.72781,44.10547 -44.10742,44.10547 -24.37969,0 -44.11524,-19.726 -44.11524,-44.10547 0,-24.3795 19.73555,-44.10742 44.11524,-44.10742 z m 0.10351,4.5332 c -21.35867,0 -38.71093,17.34676 -38.71093,38.70899 0,21.36227 17.35207,38.71875 38.71093,38.71875 21.35891,0 38.7168,-17.35648 38.7168,-38.71875 0,-21.36223 -17.35808,-38.70899 -38.7168,-38.70899 z m 0,3.36524 c 19.54001,0 35.35157,15.80064 35.35157,35.34375 0,19.54314 -15.81175,35.35351 -35.35157,35.35351 -19.53978,0 -35.3457,-15.81037 -35.3457,-35.35351 0,-19.54311 15.80574,-35.34375 35.3457,-35.34375 z m 0,6.38476 c -15.97685,0 -28.95898,12.98187 -28.95898,28.95899 0,15.97716 12.9819,28.9668 28.95898,28.9668 15.97399,0 28.9668,-12.98964 28.9668,-28.9668 0,-15.97712 -12.99308,-28.95899 -28.9668,-28.95899 z m 0,3.36719 c 14.15509,0 25.59961,11.43342 25.59961,25.5918 0,14.15841 -11.44478,25.60156 -25.59961,25.60156 -14.15833,0 -25.59375,-11.44315 -25.59375,-25.60156 0,-14.15838 11.43515,-25.5918 25.59375,-25.5918 z m -0.10351,6.38477 c -11.06355,0 -20.07813,9.00528 -20.07813,20.07226 0,11.06699 9.01458,20.07032 20.07813,20.07032 11.06661,0 20.07031,-9.00333 20.07031,-20.07032 0,-11.06698 -9.0037,-20.07226 -20.07031,-20.07226 z m 0,3.36718 c 9.24812,0 16.70508,7.45734 16.70508,16.70508 0,9.24775 -7.45696,16.70508 -16.70508,16.70508 -9.24446,0 -16.71289,-7.45733 -16.71289,-16.70508 0,-9.24774 7.46843,-16.70508 16.71289,-16.70508 z m 0.10351,12.29102 c -2.10413,0 -3.8457,1.73379 -3.8457,3.83789 0,2.10493 1.74474,3.8457 3.8457,3.8457 2.10176,0 3.84571,-1.74077 3.84571,-3.8457 0,-2.1041 -1.74077,-3.83789 -3.84571,-3.83789 z m 0,3.36524 c 0.2846,0 0.47852,0.1941 0.47852,0.47265 0,0.2846 -0.19071,0.48047 -0.47852,0.48047 -0.28195,0 -0.48047,-0.19564 -0.48047,-0.48047 0,-0.27855 0.20173,-0.47265 0.48047,-0.47265 z"/>
    <path d="m 324.37923,-119.3348 c -24.15646,4.30477 -34.28471,6.27856 -35.19752,6.93737 -2.83633,2.02671 -2.83633,2.43152 -0.254,17.118545 1.26736,7.392458 2.22779,13.520207 2.12725,13.623397 -0.10054,0.10054 -9.62289,3.59569 -21.16931,7.79991 -22.43137,8.20209 -23.749,8.8609 -23.749,12.05178 0,0.75935 8.10154,23.60083 17.97844,50.69417 9.87689,27.09333 17.97844,49.37654 17.97844,49.47708 0,0.55827 3.44487,2.22779 4.50849,2.22779 1.67217,0 67.91325,-24.15646 69.07742,-25.16981 0.45508,-0.45508 1.1139,-1.6219 1.41817,-2.6326 0.45508,-1.67217 0.20373,-2.68288 -3.03742,-11.4458803 -1.92352,-5.31812 -3.44487,-9.67317 -3.39196,-9.77371 0.10054,-0.0503 4.55877,-0.91281 9.97744,-1.8732497 l 9.82398,-1.77271 14.93837,2.5823397 c 8.20473,1.41816 14.9913,2.6326 15.04157,2.68287 0.0503,0.0503 -1.26736,3.84969 -2.93688,8.40581 -1.72244,4.60905 -3.09033,9.1149003 -3.1406,9.9774403 -0.10054,3.7465 -0.8599,3.39196 35.6526,16.764 35.85634,13.1154 36.21088,13.21859 38.53921,10.83734 1.16417,-1.16417 36.86704,-98.95682 36.86704,-100.98088 0,-3.34169 -0.96308,-3.79942 -28.10669,-13.6234 -13.92766,-5.01385 -25.52435,-9.31863 -25.77835,-9.56998 -0.254,-0.25135 0.35454,-5.013853 1.41817,-10.990791 1.01335,-5.823481 1.82298,-11.395601 1.82298,-12.406311 0,-1.92352 -1.41817,-4.20423 -2.93688,-4.65931 -3.19087,-1.01336 -70.54585,-12.45659 -71.81056,-12.20523 -3.29142,0.55562 -3.59569,1.46844 -6.33148,16.51 -1.3679,7.64646 -2.48179,14.179018 -2.48179,14.586476 0,2.227792 -0.75936,-1.214437 -3.03742,-13.824476 -1.41817,-7.747 -2.78606,-14.48329 -3.03742,-15.04156 -0.75935,-1.31763 -3.19087,-2.4818 -5.16466,-2.43153 -0.91546,0.0476 -16.92011,2.78342 -35.60763,6.12511 z m 36.61569,-0.25136 c 0.8599,0.75936 1.56898,4.05078 4.35504,20.055422 l 3.39196,19.1426 -2.32833,13.21859 c -1.26736,7.29191 -2.43152,13.41966 -2.53207,13.62339 -0.15081,0.15081 -1.5187,0.50536 -3.09033,0.70908 l -2.83633,0.35455 1.56898,0.96308 c 1.97379,1.21444 2.02671,1.97644 0.0503,1.97644 -2.32834,0 -4.2545,2.12725 -3.84969,4.20423 0.30427,1.67217 1.92352,3.39461 3.1406,3.39461 0.40482,0 0.70909,0.40481 0.70909,0.91016 0,0.50536 0.35454,1.41817 0.80962,2.07698 0.80963,1.1139 0.70909,1.77271 -0.80962,10.78706 -1.41817,8.001 -1.56898,9.92452 -1.1139,11.19188 0.30427,0.85989 0.50536,1.67217 0.35454,1.77271 -0.10054,0.15081 -2.43152,0.60854 -5.11439,1.11389 -4.86304,0.8599 -4.86304,0.8599 -5.31813,-0.20373 -1.36789,-3.1406 -10.53306,-28.86604 -10.38225,-29.0195 0.10054,-0.10054 2.38125,-0.55562 5.06413,-1.06362 2.68287,-0.45508 4.86039,-1.01336 4.86039,-1.21444 0,-0.20108 -0.40481,-0.40481 -0.85989,-0.40481 -2.17752,-0.0503 -5.21494,-2.02671 -6.73629,-4.35505 -2.12725,-3.34169 -2.02671,-3.79941 0.65881,-2.8866 6.83683,2.38125 14.33248,-4.0005 13.31912,-11.39561 -0.60854,-4.30477 -4.30477,-8.255 -8.40581,-8.96408 -1.62189,-0.254 -2.02671,-0.55827 -2.02671,-1.41817 0,-3.69623 -3.1406,-8.40581 -6.43202,-9.82398 -2.22779,-0.910161 -6.43202,-0.859891 -8.40581,0.15082 -0.91281,0.45508 -2.33098,1.51871 -3.24115,2.33098 l -1.61925,1.56898 -0.70908,-1.72244 c -0.35454,-0.96309 -0.96308,-2.58234 -1.31762,-3.595689 -0.75936,-2.278062 -3.19088,-4.455583 -5.01386,-4.455583 -0.75935,0 -2.58233,0.455083 -4.05077,1.013354 -1.87325,0.709083 -3.29142,0.963083 -4.45558,0.709083 -2.43152,-0.455083 -4.10104,0.100542 -4.91332,1.672167 -0.50535,0.963083 -1.72243,1.672167 -4.60904,2.733148 -2.12725,0.75935 -3.84968,1.26735 -3.84968,1.06362 0,-0.20373 -0.91017,-5.468935 -2.02671,-11.699872 -2.17752,-12.15496 -2.12725,-12.91431 0.40481,-13.57312 1.67217,-0.40482 64.31756,-11.64696 65.48173,-11.75015 0.46037,-0.003 1.32027,0.3519 1.87854,0.80962 z m 55.30056,5.21494 c 17.42017,3.08769 32.05692,5.72294 32.512,5.87375 0.50536,0.15081 1.06363,0.80963 1.21444,1.51871 0.254,0.96308 -2.58233,19.751146 -3.08769,20.359687 -0.0503,0.05027 -2.68287,-0.809625 -5.87375,-1.923521 -6.53256,-2.38125 -8.255,-2.38125 -10.17852,-0.100541 -0.65881,0.809625 -3.19087,7.040557 -5.67266,13.927667 -2.4818,6.8871 -4.55878,12.45923 -4.65932,12.35604 -0.0503,-0.0503 -2.38125,-5.31812 -5.16466,-11.64696 l -5.01386,-11.496143 -8.05127,8.506353 c -4.40531,4.65931 -8.35554,8.86354 -8.763,9.31863 -0.55562,0.75935 -0.0503,2.32833 4.30477,12.30577 2.73579,6.27856 5.1144,11.39561 5.26786,11.39561 0.15345,0 4.05077,-3.95023 8.60954,-8.81328 4.60904,-4.8604 8.40581,-8.76035 8.45608,-8.71008 0.15081,0.10054 -17.47308,49.276 -17.82762,49.78136 -0.0503,0.10054 -8.60955,-1.3679 -19.04207,-3.19088 -14.83783,-2.58233 -19.1426,-3.49515 -19.90195,-4.2545 -0.96309,-0.91281 -0.80963,-1.72244 7.69672,-50.23909 7.85019,-44.767492 8.76036,-49.326272 9.77371,-50.186162 0.70909,-0.60854 1.56898,-0.80963 2.43152,-0.60854 0.71173,0.15346 15.54957,2.78871 32.96973,5.82612 z m -98.044,30.487942 c 0.40482,0.65881 8.255,21.97893 17.52336,47.40275 14.07848,38.5894797 16.764,46.4396697 16.30627,47.40275 -0.40481,0.91281 -5.87375,3.09033 -32.05692,12.61004 -17.36989,6.32884 -32.05692,11.4935 -32.61254,11.4935 -0.55562,0 -1.31762,-0.20373 -1.6219,-0.40481 -0.75935,-0.508 -34.58898,-93.0328 -34.58898,-94.60178 0,-0.60854 0.30428,-1.31762 0.65882,-1.61925 1.11389,-0.91281 62.79621,-23.34683 64.26729,-23.34683 0.91017,-0.0503 1.61925,0.35454 2.1246,1.06363 z m 149.39698,10.27906 c 17.21909,6.27856 31.65211,11.64696 32.00665,11.95123 0.40481,0.30427 0.70908,1.06362 0.70908,1.67216 0,1.01336 -31.95637,89.68847 -33.67881,93.33443 -0.55563,1.31762 -1.06363,1.67216 -2.17752,1.67216 -1.1139,0 -56.51765,-19.75114 -63.05021,-22.48693 -1.01335,-0.40482 -1.92352,-1.16417 -2.07698,-1.72244 -0.35454,-1.0133603 32.36119,-92.22053 33.93017,-94.70232 0.40481,-0.60854 1.21443,-1.1139 1.87325,-1.1139 0.61118,0.003 15.24529,5.11705 32.46437,11.39561 z m -132.38162,21.62439 c 0,0.91282 -0.10054,1.01336 -0.45509,0.40482 -0.30427,-0.40482 -0.35454,-0.91282 -0.254,-1.1139 0.45773,-0.70908 0.70909,-0.45508 0.70909,0.70908 z" id="path4" style="fill:#eeeeee;fill-opacity:1;stroke-width:0.0264583"/>
    <path d="m 303.15965,-102.11572 c -0.50535,1.67217 -1.87325,11.64696 -1.67217,11.90096 0.55827,0.555625 1.26736,-0.404813 1.56898,-2.12725 0.40482,-1.976438 0.45509,-2.026709 2.88661,-2.481792 1.67216,-0.304271 1.82298,-0.201083 2.6326,1.468438 0.45508,0.963083 1.16417,1.772708 1.6219,1.772708 0.40481,0 0.75935,-0.150813 0.75935,-0.304271 0,-0.201083 -1.31762,-2.682875 -2.8866,-5.569479 -2.02671,-3.645954 -3.19088,-5.267854 -3.84969,-5.267854 -0.50271,0 -0.95779,0.30427 -1.06098,0.60854 z m 3.64596,5.77321 c -0.15081,0.100541 -0.96309,0.354541 -1.82298,0.505354 l -1.56898,0.304271 0.254,-1.923521 c 0.50535,-3.495144 0.65881,-3.595684 2.02671,-1.267354 0.70644,1.166812 1.21444,2.230437 1.11125,2.38125 z" id="path6" style="fill:#eeeeee;fill-opacity:1;stroke-width:0.0264583"/>
    <path d="m 389.55669,-110.67499 c -1.41817,1.82298 -5.67267,10.07798 -5.41867,10.48279 0.55563,0.91017 1.06363,0.555629 1.97644,-1.31762 0.75936,-1.67217 1.01336,-1.82298 2.43152,-1.51871 0.8599,0.15346 1.87325,0.30427 2.22779,0.30427 0.45509,0 0.70909,0.55563 0.70909,1.46844 0,1.367894 1.31762,3.444872 1.82298,2.936872 0.20373,-0.203729 -1.01336,-8.760352 -1.56898,-11.292412 -0.30427,-1.31498 -1.52136,-1.92352 -2.18017,-1.06363 z m 1.3679,5.21758 c 0.0503,1.41817 -0.0503,1.51871 -1.46844,1.31763 -1.82298,-0.254 -1.87325,-0.55827 -0.35454,-3.1406 1.01335,-1.87325 1.11389,-1.92353 1.46844,-0.8599 0.15081,0.6059 0.30427,1.82033 0.35454,2.68287 z" id="path8" style="fill:#eeeeee;fill-opacity:1;stroke-width:0.0264583"/>
    <path d="m 384.94765,-93.96126 -3.13796,3.241146 1.92352,4.151312 1.92352,4.153954 3.19088,-3.241141 3.19087,-3.241146 -1.61925,-3.7465 c -0.91281,-2.076979 -1.77271,-3.899959 -1.97643,-4.101042 -0.15082,-0.206375 -1.72244,1.060979 -3.49515,2.783417 z" id="path10" style="fill:#eeeeee;fill-opacity:1;stroke-width:0.0264583"/>
    <path d="m 264.2659,-58.258388 c -0.80963,0.15081 -0.91017,0.91017 -0.91017,6.48229 0,5.1144 0.15082,6.28122 0.70909,6.28122 0.50535,0 0.80962,-0.70909 0.91281,-2.12725 0.15081,-1.97645 0.30427,-2.17753 2.12725,-2.88661 1.92352,-0.75936 1.97379,-0.75936 3.29142,0.85989 0.85989,1.06363 1.5187,1.46845 1.97379,1.21445 0.45508,-0.30427 -0.45509,-1.72245 -3.24115,-5.21759 -2.12725,-2.63261 -3.89996,-4.75986 -3.95023,-4.81013 0,0 -0.45508,0.0503 -0.91281,0.20373 z m 3.64596,5.72294 c 0,0.254 -2.27806,1.46844 -2.78606,1.46844 -0.15082,0 -0.254,-1.21444 -0.254,-2.68288 l 0.0503,-2.6326 1.46843,1.77271 c 0.86519,0.96043 1.52136,1.8706 1.52136,2.07433 z" id="path12" style="fill:#eeeeee;fill-opacity:1;stroke-width:0.0264583"/>
    <path d="m 267.71077,-42.862278 c -2.68552,4.65931 -3.09033,7.64646 -1.16416,9.41917 1.36789,1.31762 3.24114,1.41816 4.81012,0.30427 1.06363,-0.70908 1.1139,-0.70908 1.1139,0.50535 0,0.65882 -0.40481,1.67217 -0.8599,2.12725 -0.70908,0.70909 -0.70908,0.8599 -0.15081,0.60854 0.40481,-0.15081 1.97379,-0.65881 3.49515,-1.16416 l 2.78606,-0.91281 -1.72244,-0.55828 c -1.92352,-0.60854 -2.6326,-1.82297 -1.11389,-1.82297 0.55827,0 1.56898,-0.45509 2.33098,-1.06363 2.73579,-2.12725 0.96308,-5.97694 -3.59569,-7.95073 -4.56142,-1.87325 -4.51115,-1.87325 -5.92932,0.508 z" id="path14" style="fill:#eeeeee;fill-opacity:1;stroke-width:0.0264583"/>
    <path d="m 291.81696,-40.838218 c -9.36889,13.92767 -10.22879,25.57463 -2.12725,29.6254 2.38125,1.2673497 6.07748,1.5187097 8.30527,0.65881 0.70909,-0.254 2.32834,-1.41816 3.59569,-2.58233 l 2.27806,-2.12725 v 3.08769 c 0,3.7994097 -0.55827,5.3683897 -2.6326,7.2416397 -0.8599,0.80963 -1.46844,1.6219 -1.31763,1.77271 0.40482,0.40481 17.6239,-5.97694 17.31963,-6.43202 -0.15081,-0.254 -1.21444,-0.4550797 -2.43152,-0.4550797 -2.53206,0 -5.56948,-1.92352 -6.98765,-4.40532 l -0.91016,-1.56898 3.19087,0.10055 c 2.73579,0.0503 3.59569,-0.15082 5.67267,-1.46844 4.40531,-2.73579 6.07748,-8.30527 3.84969,-13.16831 -1.16417,-2.58234 -5.56948,-6.63575 -9.51971,-8.71009 -3.29142,-1.77271 -13.06513,-5.21493 -14.73729,-5.21493 -0.762,0 -1.82563,1.06362 -3.54807,3.64595 z" id="path16" style="fill:#eeeeee;fill-opacity:1;stroke-width:0.0264583"/>
    <path d="m 328.938,-19.010088 c -2.12725,0.75935 -2.68287,1.11389 -1.97379,1.26735 0.60854,0.10054 1.51871,0.60854 2.02671,1.16417 0.75936,0.8599 0.75936,0.96308 0.0503,0.96308 -1.56898,0 -3.34169,1.16417 -3.84969,2.53207 -0.75935,2.27806 0.65882,4.5058497 4.0005,6.1780197 4.60905,2.32833 5.1144,2.27806 6.68602,-0.20373 0.75936,-1.21444 1.67217,-3.2914197 2.02671,-4.6090397 0.55563,-2.07698 0.50536,-2.63261 -0.15081,-3.79942 -1.06362,-1.92352 -3.19087,-2.58233 -5.06412,-1.51871 l -1.46844,0.8599 v -1.3679 c 0,-0.80962 0.254,-1.67217 0.60854,-2.02671 0.75406,-0.75671 0.80433,-0.75671 -2.8919,0.56092 z" id="path18" style="fill:#eeeeee;fill-opacity:1;stroke-width:0.0264583"/>
    <path d="m 338.66144,-4.1219883 c -0.20373,0.15082 -0.35454,1.16417 -0.35454,2.22779 0,1.72244004 -0.15081,1.92353004 -1.82298,2.48180004 -1.67217,0.55561996 -1.92352,0.50534996 -3.19087,-0.70909 -1.26736,-1.21443004 -2.58234,-1.72243004 -2.58234,-1.01335004 0,0.20373004 1.72244,2.48179 3.84969,5.06412 3.44487,4.20423 3.95023,4.65932 4.86304,4.20423 0.8599,-0.45508 0.96308,-0.85989 0.70909,-2.38125 -0.15082,-1.06362 -0.30428,-3.74914 -0.30428,-6.07747996 -0.003,-3.79677004 -0.30691,-4.70693004 -1.16681,-3.79677004 z m 0.15081,8.10419 c 0,1.56898 -0.10054,2.73315 -0.20372,2.6326 -0.10055,-0.10054 -0.91282,-1.11389 -1.82298,-2.17752 l -1.56898,-2.0267 1.41816,-0.60855 c 2.12725,-0.96042996 2.17752,-0.91015996 2.17752,2.18017 z" id="path20" style="fill:#eeeeee;fill-opacity:1;stroke-width:0.0264583"/>
    <path d="m 437.81934,-70.209618 c -2.07698,2.58234 -3.79942,4.8604 -3.79942,5.06413 0,0.91281 1.51871,0.30427 2.43152,-0.96309 0.96308,-1.31762 1.06363,-1.31762 3.03742,-0.75935 1.92352,0.60854 2.07698,0.75935 2.22779,2.73579 0.10054,1.16417 0.45508,2.17752 0.80962,2.32834 0.45509,0.15081 0.60855,-1.31763 0.60855,-6.12775 0.003,-8.255 -0.30163,-8.35555 -5.31548,-2.27807 z m 3.89996,0.25136 -0.20373,2.6326 -1.31763,-0.60854 c -0.75935,-0.30427 -1.46844,-0.60854 -1.56898,-0.70908 -0.10054,-0.0503 0.55827,-1.01336 1.46844,-2.17752 0.91281,-1.16417 1.67217,-2.02671 1.72244,-1.92353 0.0529,0.10319 0,1.31763 -0.10054,2.78607 z" id="path22" style="fill:#eeeeee;fill-opacity:1;stroke-width:0.0264583"/>
    <path d="m 429.96915,-59.827368 c -0.91281,1.16417 -1.06363,1.82298 -0.80963,3.64596 0.40482,2.98715 2.88661,7.34219 4.30478,7.54592 1.46843,0.254 6.33147,-2.07698 7.90045,-3.7465 2.63261,-2.83634 0.65882,-7.19138 -3.03741,-6.63311 -1.1139,0.15082 -1.82298,-0.10054 -2.63261,-0.96308 -1.62189,-1.77535 -4.30741,-1.67481 -5.72558,0.15081 z" id="path24" style="fill:#eeeeee;fill-opacity:1;stroke-width:0.0264583"/>
    <path d="m 439.33805,-41.497028 c -4.05078,1.82563 -6.32884,5.72294 -6.32884,10.73679 0,4.81013 3.79942,13.97794 8.40581,20.2565 l 2.17753,2.9368797 3.64595,-1.01336 c 13.21859,-3.6459497 21.52386,-9.7234297 22.1324,-16.1554497 0.10054,-1.3679 0.0503,-3.29142 -0.10054,-4.30478 -0.40746,-2.17487 -3.44488,-5.72029 -5.72294,-6.68337 -2.17752,-0.8599 -5.82348,-0.8599 -8.10419,0.10054 -0.96308,0.40481 -1.87325,0.75936 -1.97379,0.75936 -0.10054,0 -0.55827,-0.80963 -1.01335,-1.77271 -2.27807,-4.8604 -8.255,-7.08819 -13.11804,-4.8604 z" id="path26" style="fill:#eeeeee;fill-opacity:1;stroke-width:0.0264583"/>
    <path d="m 462.12925,0.03197174 c -3.49514,1.67216996 -4.65931,2.78605996 -5.11439,4.96357996 -0.254,1.31763 -0.0503,1.87325 1.01335,2.93688 1.1139,1.1139 1.72244,1.31762 3.24115,1.16417 1.51871,-0.20373 2.02671,0 2.78606,0.9630803 1.21444,1.51871 4.0005,1.56898 5.41867,0.15081 1.16416,-1.1641603 1.36789,-4.2042303 0.40481,-6.4320203 -1.26735,-2.88659996 -2.98715,-5.21494 -3.84969,-5.21494 -0.45773,0 -2.23044,0.65617004 -3.89996,1.46844004 z" id="path28" style="fill:#eeeeee;fill-opacity:1;stroke-width:0.0264583"/>
    <path d="m 456.30577,17.960142 c 0,5.41866 0.10055,6.38175 0.8599,6.6331 0.96308,0.40481 0.65881,0.70909 5.21494,-5.01385 2.68287,-3.34169 3.44487,-4.60904 2.83633,-4.70959 -0.45508,-0.10054 -1.31762,0.45509 -2.02671,1.21444 -1.11389,1.3679 -1.26735,1.3679 -3.24114,0.80963 -1.92352,-0.60854 -2.07698,-0.75936 -2.22779,-2.73579 -0.10055,-1.16417 -0.45509,-2.17753 -0.75936,-2.32834 -0.50535,-0.15081 -0.65617,1.31763 -0.65617,6.1304 z m 4.50586,0.65616 c 0.20108,0.20373 -2.48179,4.2545 -2.78606,4.2545 -0.10055,0 -0.20373,-1.16416 -0.20373,-2.58233 0,-2.58233 0,-2.58233 1.36789,-2.22779 0.81227,0.20108 1.52136,0.40481 1.6219,0.55562 z" id="path30" style="fill:#eeeeee;fill-opacity:1;stroke-width:0.0264583"/>
  </g>
</svg>