<?xml version="1.0" encoding="UTF-8" standalone="no"?>
<svg xmlns:dc="http://purl.org/dc/elements/1.1/" xmlns:cc="http://creativecommons.org/ns#" xmlns:rdf="http://www.w3.org/1999/02/22-rdf-syntax-ns#" xmlns:svg="http://www.w3.org/2000/svg" xmlns="http://www.w3.org/2000/svg" xmlns:sodipodi="http://sodipodi.sourceforge.net/DTD/sodipodi-0.dtd" xmlns:inkscape="http://www.inkscape.org/namespaces/inkscape" inkscape:version="1.0 (4035a4fb49, 2020-05-01)" height="199.76562" width="230.0918" sodipodi:docname="programming.svg" id="svg6" version="1.1" viewBox="0 0 230.09179 199.76562">
  <metadata id="metadata12">
    <rdf:RDF>
      <cc:Work rdf:about="">
        <dc:format>image/svg+xml</dc:format>
        <dc:type rdf:resource="http://purl.org/dc/dcmitype/StillImage"/>
      </cc:Work>
    </rdf:RDF>
  </metadata>
  <defs id="defs10"/>
  <sodipodi:namedview inkscape:current-layer="svg6" inkscape:window-maximized="1" inkscape:window-y="-9" inkscape:window-x="-9" inkscape:cy="126.56299" inkscape:cx="150.33749" inkscape:zoom="2.2675001" showgrid="false" id="namedview8" inkscape:window-height="1001" inkscape:window-width="1920" inkscape:pageshadow="2" inkscape:pageopacity="0" guidetolerance="10" gridtolerance="10" objecttolerance="10" borderopacity="1" bordercolor="#666666" pagecolor="#ffffff"/>
  <path d="M 42.21289,0 C 35.77041,0 30.36914,5.63833 30.36914,12.064453 V 124.99415 c 0,6.93572 5.87373,12.71484 12.0918,12.71484 h 44.880861 c -0.37402,4.05577 -2.62659,8.02448 -6.21484,10.06055 -1.29505,0.79012 -2.85472,1.05992 -4.0586,2.01367 -0.92336,0.73402 -1.89952,1.59457 -2.16601,2.80078 -0.12623,0.57506 0.30366,1.12987 0.80859,1.34961 0.86025,0.37437 1.82078,0.38477 2.74414,0.38477 h 73.400399 c 0.66856,0 1.36865,-0.12409 1.92968,-0.52149 1.32781,-0.93739 1.34861,-3.15613 0.0723,-4.15429 -0.77842,-0.61011 -1.80554,-0.5463 -2.72656,-0.6211 -2.17399,-0.17299 -4.19145,-1.34973 -5.54493,-3.03515 -1.92853,-2.36568 -2.8119,-5.35299 -3.48046,-8.27735 h 42.24218 c 10.05411,0 15.34961,-4.89656 15.34961,-15.06055 V 11.84375 c 0,-6.470538 -4.77257,-11.81413 -11.59375,-11.839844 H 42.21289 Z m 7.623051,19.61914 H 179.22266 V 99.636721 H 49.835941 Z M 115.0293,112.8672 c 2.16885,0.0198 4.22636,1.64359 4.70704,3.78515 0.53298,2.36801 -1.05526,4.90998 -3.35547,5.58789 -2.41009,0.71063 -5.15584,-0.8441 -5.89453,-3.2168 -0.79479,-2.55268 1.00058,-5.50847 3.60937,-6.0625 0.31003,-0.0657 0.62376,-0.0966 0.93359,-0.0937 z M 28.44922,164.26954 0,192.71876 v 7.04687 h 230.0918 v -7.09375 L 203.04493,164.26954 H 28.47266 Z m 153.18165,5.89062 c 1.60813,-0.0115 3.22653,0.28588 4.63086,1.08008 0.727,0.41142 1.49793,1.16529 1.30859,2.08399 -0.18701,0.91401 -1.06809,1.49506 -1.86523,1.8457 -2.18801,0.96544 -4.7392,1.02216 -7.02539,0.38867 -1.07765,-0.29922 -2.25465,-0.79566 -2.83204,-1.82422 -0.36702,-0.65219 -0.0885,-1.4407 0.42578,-1.91992 1.01688,-0.94907 2.41797,-1.33882 3.75977,-1.54687 0.52538,-0.0655 1.06161,-0.10359 1.59766,-0.10743 z m -149.25587,0.002 c 1.48465,-0.0341 2.98051,0.19732 4.33399,0.81445 0.8205,0.37402 1.73583,0.98066 1.8457,1.94141 0.10052,0.86727 -0.64874,1.55572 -1.35937,1.95312 -1.91919,1.07297 -4.22122,1.25506 -6.35547,0.95117 -1.3792,-0.19636 -2.82638,-0.65631 -3.79883,-1.72461 -0.53531,-0.58907 -0.5146,-1.53589 0.0254,-2.11328 0.98881,-1.05893 2.45245,-1.47833 3.83398,-1.70508 0.48681,-0.066 0.97973,-0.10582 1.47461,-0.11718 z m 16.601571,0 c 1.48355,-0.0334 2.97834,0.19927 4.33007,0.8164 0.81583,0.37403 1.72764,0.98105 1.83985,1.93946 0.10052,0.87194 -0.64288,1.55338 -1.35352,1.95312 -1.91451,1.0753 -4.21926,1.25936 -6.353511,0.95313 -1.38154,-0.1987 -2.84277,-0.64616 -3.81055,-1.7168 -0.49325,-0.54466 -0.54097,-1.41947 -0.0781,-1.99219 0.95374,-1.1805 2.52054,-1.58581 3.95117,-1.83594 0.48622,-0.066 0.980091,-0.10604 1.474611,-0.11718 z m 16.67773,0 c 1.57253,-0.0265 3.15542,0.23921 4.55274,0.96679 0.75505,0.39272 1.6057,1.07822 1.54492,2.00391 -0.0631,0.99116 -1.00022,1.60062 -1.83008,1.98633 -1.88412,0.87192 -4.04789,1.00071 -6.07227,0.67578 -1.31608,-0.21272 -2.68018,-0.68273 -3.61523,-1.69727 -0.53999,-0.58674 -0.51655,-1.54446 0.0234,-2.11718 0.99349,-1.05661 2.45245,-1.46976 3.83398,-1.70118 0.51428,-0.0672 1.03833,-0.10834 1.5625,-0.11718 z m 16.51563,0 c 1.48355,-0.0333 2.97834,0.20082 4.33007,0.81445 0.81817,0.37168 1.73622,0.983 1.84375,1.94141 0.1052,0.94207 -0.74341,1.63622 -1.50781,2.04296 -1.9449,1.03557 -4.25676,1.17723 -6.38867,0.83594 -1.36283,-0.2174 -2.82616,-0.68775 -3.7168,-1.82617 -0.45583,-0.57972 -0.37019,-1.46192 0.12305,-1.99023 0.98881,-1.06362 2.45988,-1.46508 3.84375,-1.70118 0.48623,-0.0666 0.97814,-0.10608 1.47266,-0.11718 z m 16.59375,0 c 1.483989,-0.033 2.978539,0.20082 4.332029,0.81445 0.8205,0.37168 1.72922,0.98066 1.84375,1.94141 0.0958,0.80181 -0.55641,1.47251 -1.21094,1.86523 -1.93789,1.16647 -4.313939,1.34725 -6.501949,1.04102 -1.37919,-0.19168 -2.82443,-0.66061 -3.79688,-1.72657 -0.53757,-0.58907 -0.51227,-1.53783 0.0254,-2.11523 0.98882,-1.05894 2.45246,-1.47404 3.83399,-1.70313 0.48681,-0.066 0.97994,-0.10619 1.47461,-0.11718 z m 16.640619,0 c 1.52782,-0.0304 3.06708,0.21718 4.44336,0.88867 0.75973,0.37168 1.58893,0.96564 1.68946,1.86328 0.0982,0.87193 -0.64483,1.55729 -1.35547,1.95703 -1.91685,1.07764 -4.22121,1.25974 -6.35547,0.95117 -1.37685,-0.1987 -2.83105,-0.64929 -3.79883,-1.72461 -0.53295,-0.59141 -0.52123,-1.54213 0.0234,-2.11718 0.99816,-1.05193 2.45208,-1.47209 3.83594,-1.70118 0.50025,-0.0666 1.0083,-0.10707 1.51757,-0.11718 z m 16.51368,0 c 1.4406,-0.0359 2.88961,0.18311 4.21679,0.74414 0.88129,0.37402 1.88588,0.99642 2.00977,2.01562 0.12389,1.00517 -0.85214,1.7124 -1.66797,2.11914 -1.91452,0.95609 -4.16013,1.09286 -6.23828,0.75391 -1.36517,-0.22207 -2.82617,-0.6858 -3.7168,-1.82422 -0.45583,-0.57972 -0.37993,-1.45725 0.125,-1.99023 0.99817,-1.05426 2.45833,-1.46742 3.83985,-1.70118 0.47337,-0.0654 0.95144,-0.1052 1.43164,-0.11718 z m 16.68359,0 c 1.52672,-0.0304 3.06493,0.21718 4.43945,0.88867 0.76207,0.37168 1.5866,0.96955 1.68946,1.86719 0.0912,0.80181 -0.55213,1.47212 -1.20899,1.86718 -1.87711,1.12675 -4.1755,1.33057 -6.30273,1.06641 -1.44933,-0.17999 -2.97183,-0.64353 -3.99805,-1.75391 -0.54227,-0.58674 -0.5115,-1.5468 0.0215,-2.11718 0.99116,-1.06128 2.45986,-1.46508 3.84374,-1.70118 0.49967,-0.0666 1.00672,-0.10707 1.51563,-0.11718 z m 48.85156,0 c 1.52859,-0.0202 3.06669,0.24123 4.43946,0.91797 0.73868,0.36467 1.54,0.95583 1.6289,1.84179 0.0865,0.85791 -0.61391,1.54049 -1.29883,1.93555 -1.87711,1.08232 -4.1567,1.26099 -6.26757,0.98047 -1.4166,-0.18701 -2.89992,-0.63524 -3.91211,-1.71289 -0.56811,-0.60311 -0.52589,-1.58903 0.0351,-2.17578 1.00284,-1.04725 2.46692,-1.4693 3.85547,-1.67969 0.50084,-0.0643 1.01,-0.1007 1.51953,-0.10742 z m -32.25976,0.002 c 1.52793,-0.0287 3.06728,0.22049 4.44531,0.88672 0.82051,0.39739 1.77404,1.09323 1.71094,2.08203 -0.0701,1.10571 -1.19544,1.73539 -2.13282,2.12109 -1.87711,0.77142 -3.98954,0.87133 -5.96484,0.51368 -1.30439,-0.23611 -2.68193,-0.71298 -3.53516,-1.79297 -0.45817,-0.58206 -0.37019,-1.46388 0.12305,-1.99219 0.98882,-1.06128 2.45441,-1.47404 3.83594,-1.70313 0.50025,-0.0666 1.00827,-0.10566 1.51758,-0.11523 z m 40.13672,9.19531 c 1.33406,-0.01 2.67023,0.21909 3.90625,0.71875 0.94673,0.38104 2.08172,1.06465 2.10742,2.17969 0.0257,1.13609 -1.14586,1.82013 -2.09961,2.20117 -2.28152,0.91167 -4.88775,0.95821 -7.22071,0.21485 -0.85322,-0.2735 -1.69059,-0.72255 -2.27734,-1.42383 -0.4278,-0.51194 -0.46381,-1.29049 -0.0664,-1.82813 0.76905,-1.04492 2.05358,-1.52843 3.27148,-1.79492 0.77755,-0.17094 1.57847,-0.26187 2.37891,-0.26758 z m -97.29297,0.008 c 1.44076,0.0198 2.87493,0.31813 4.15625,0.97851 0.73168,0.37635 1.53011,1.01333 1.53711,1.92969 0.009,0.97245 -0.88016,1.62597 -1.65625,2 -2.31425,1.1127 -5.07554,1.17538 -7.51368,0.42969 -1.01921,-0.31091 -2.09819,-0.83935 -2.60546,-1.83985 -0.33661,-0.66389 0.002,-1.41801 0.5,-1.88086 0.82751,-0.7644 1.92901,-1.14201 3.01367,-1.37109 0.83804,-0.17006 1.7039,-0.25798 2.56836,-0.24609 z m 16.59961,0 c 1.44065,0.0203 2.87298,0.31959 4.15429,0.97851 0.73167,0.37635 1.53202,1.01333 1.54102,1.92969 0.009,0.97245 -0.88836,1.62325 -1.66211,2.00195 -2.00334,0.98414 -4.36741,1.10862 -6.53906,0.67383 -1.11505,-0.22442 -2.25572,-0.60599 -3.09961,-1.39844 -0.547,-0.51661 -0.85971,-1.38226 -0.39453,-2.0625 0.77375,-1.12674 2.15801,-1.59644 3.42968,-1.87695 0.83892,-0.17006 1.70593,-0.25828 2.57032,-0.24609 z m -66.388679,0.002 c 1.44113,0.019 2.87445,0.31472 4.1543,0.97656 0.73635,0.38104 1.52036,1.01295 1.53906,1.93164 0.0164,0.79011 -0.61331,1.36897 -1.21875,1.75 -1.42127,0.89298 -3.15589,1.1683 -4.80859,1.1543 -1.74153,-0.0164 -3.58657,-0.34577 -5.01953,-1.41406 -0.67791,-0.50727 -1.16736,-1.48566 -0.63672,-2.27344 0.76206,-1.1314 2.1576,-1.58865 3.41992,-1.88086 0.83891,-0.16743 1.70563,-0.25554 2.57031,-0.24414 z m 82.986329,0 c 1.44134,0.0181 2.87494,0.31326 4.15625,0.97656 0.77842,0.40207 1.66876,1.12565 1.52149,2.11914 -0.14026,0.93506 -1.01457,1.5283 -1.80469,1.89063 -2.06879,0.94673 -4.47179,1.02644 -6.67383,0.5332 -1.01452,-0.22675 -2.03328,-0.6183 -2.80469,-1.33594 -0.54934,-0.5096 -0.84255,-1.38498 -0.38671,-2.06054 0.76438,-1.13141 2.15293,-1.59411 3.41992,-1.87696 0.83891,-0.16918 1.70746,-0.25693 2.57226,-0.24609 z m 16.59571,0 c 1.44065,0.0202 2.87298,0.31764 4.15429,0.97656 0.78309,0.40441 1.6719,1.12255 1.5293,2.12305 -0.13558,0.93505 -1.01652,1.52983 -1.80664,1.88281 -2.40775,1.07765 -5.25103,1.10316 -7.72656,0.22656 -0.94206,-0.33428 -1.94508,-0.89989 -2.30274,-1.90039 -0.22441,-0.62649 0.12654,-1.28116 0.56836,-1.69726 0.8205,-0.77141 1.93134,-1.13811 3.01367,-1.36719 0.83892,-0.16919 1.70593,-0.25625 2.57032,-0.24414 z m 16.16015,0 c 1.33005,0.005 2.65605,0.24161 3.87891,0.76758 0.83454,0.36 1.75091,0.94973 1.94726,1.89648 0.18702,0.90231 -0.60266,1.64133 -1.32031,2.05273 -1.53348,0.87662 -3.35417,1.16349 -5.0957,1.08399 -1.69711,-0.0795 -3.50156,-0.44595 -4.83399,-1.58203 -0.60545,-0.51427 -0.90768,-1.43269 -0.41211,-2.12696 0.79479,-1.11504 2.17798,-1.58978 3.45899,-1.86328 0.77842,-0.15165 1.57892,-0.23173 2.37695,-0.22851 z m 16.21289,0 c 1.37126,8.9e-4 2.73865,0.24898 3.99805,0.79101 0.88362,0.38104 1.93364,1.05275 1.93164,2.09766 -0.002,1.1805 -1.22802,1.87445 -2.22852,2.25781 -2.16699,0.82753 -4.60662,0.86516 -6.83203,0.23633 -0.99583,-0.28284 -2.00047,-0.76162 -2.62695,-1.61719 -0.44415,-0.60544 -0.29009,-1.47557 0.21484,-1.99218 0.82284,-0.8392 1.97365,-1.2581 3.09571,-1.51758 0.80121,-0.16831 1.62451,-0.2564 2.44726,-0.25586 z m -165.15039,0.002 c 1.44065,0.0183 2.87494,0.31277 4.15625,0.97461 0.73401,0.3787 1.52771,1.00905 1.53711,1.92773 0.009,0.97246 -0.87782,1.62288 -1.65625,2.00391 -2.09685,1.02621 -4.57584,1.11664 -6.83399,0.60938 -1.01686,-0.22675 -2.04691,-0.6027 -2.80664,-1.33203 -0.48857,-0.46753 -0.84434,-1.23922 -0.47265,-1.89844 0.7083,-1.25296 2.19211,-1.73751 3.50586,-2.03906 0.83891,-0.16745 1.70592,-0.25708 2.57031,-0.2461 z m 49.791011,0 c 1.44029,0.0216 2.87348,0.32154 4.15625,0.97461 0.79246,0.40441 1.6645,1.13036 1.53125,2.13086 -0.12389,0.93505 -1.02276,1.5275 -1.81054,1.88281 -2.33762,1.05661 -5.09737,1.0862 -7.52149,0.28906 -1.01219,-0.33428 -2.10888,-0.90241 -2.51562,-1.9707 -0.2174,-0.57272 0.0815,-1.17568 0.46484,-1.58008 0.81349,-0.86026 1.99593,-1.24164 3.125,-1.48242 0.83804,-0.17093 1.70614,-0.25712 2.57031,-0.24414 z m -33.054681,0.002 c 1.39417,0.0344 2.77864,0.33127 4.01757,0.97266 0.73168,0.3787 1.52816,1.01295 1.53516,1.93164 0.009,0.97479 -0.87782,1.62559 -1.65625,2.00195 -2.31425,1.11972 -5.07515,1.16176 -7.51562,0.42774 -1.02155,-0.30856 -2.0912,-0.85065 -2.60547,-1.8418 -0.33896,-0.65453 0.004,-1.42073 0.50195,-1.8789 0.88596,-0.81116 2.07062,-1.1951 3.23242,-1.41016 0.81349,-0.1499 1.65373,-0.22375 2.49024,-0.20313 z m 49.791011,0 c 1.39338,0.0355 2.77668,0.3342 4.01563,0.97266 0.73401,0.3787 1.53406,1.01333 1.53906,1.92969 0.005,1.0379 -0.98655,1.70529 -1.81641,2.08398 -2.28619,1.04025 -4.975,1.07467 -7.35937,0.34766 -1.01687,-0.3109 -2.08963,-0.84559 -2.60156,-1.84375 -0.37169,-0.72467 0.0643,-1.52933 0.62304,-1.99219 0.87895,-0.72934 2.00096,-1.08922 3.11133,-1.29492 0.81437,-0.15078 1.65226,-0.2244 2.48828,-0.20313 z" style="color:#000000;font-style:normal;font-variant:normal;font-weight:normal;font-stretch:normal;font-size:medium;line-height:normal;font-family:sans-serif;font-variant-ligatures:normal;font-variant-position:normal;font-variant-caps:normal;font-variant-numeric:normal;font-variant-alternates:normal;font-variant-east-asian:normal;font-feature-settings:normal;font-variation-settings:normal;text-indent:0;text-align:start;text-decoration:none;text-decoration-line:none;text-decoration-style:solid;text-decoration-color:#000000;letter-spacing:normal;word-spacing:normal;text-transform:none;writing-mode:lr-tb;direction:ltr;text-orientation:mixed;dominant-baseline:auto;baseline-shift:baseline;text-anchor:start;white-space:normal;shape-padding:0;shape-margin:0;inline-size:0;clip-rule:nonzero;display:inline;overflow:visible;visibility:visible;isolation:auto;mix-blend-mode:normal;color-interpolation:sRGB;color-interpolation-filters:linearRGB;solid-color:#000000;solid-opacity:1;vector-effect:none;fill:#eeeeee;fill-opacity:1;fill-rule:nonzero;stroke:none;stroke-width:0.233762;stroke-linecap:butt;stroke-linejoin:miter;stroke-miterlimit:4;stroke-dasharray:none;stroke-dashoffset:0;stroke-opacity:1;color-rendering:auto;image-rendering:auto;shape-rendering:auto;text-rendering:auto;enable-background:accumulate;stop-color:#000000" id="path839"/>
</svg>