<?xml version="1.0" encoding="UTF-8"?>
<svg width="129.33mm" height="170.35mm" version="1.1" viewBox="0 0 129.33 170.35" xml:space="preserve" xmlns="http://www.w3.org/2000/svg"><g transform="translate(131.15 -92.505)"><path d="m-13.282 262.05c-0.3921-0.46598-1.0629-1.4482-1.4906-2.1828-0.42775-0.73457-0.9212-1.5592-1.0966-1.8326-0.25199-0.39283-0.21461-0.45896 0.0217-0.62062 0.15976-0.10929 1.072-0.73908 1.072-0.73908l2.8424-1.922s2.3405-1.4688 3.7126-2.385c1.3721-0.91618 2.597-1.6026 2.722-1.5254 0.38754 0.23952 3.2012 5.033 3.2012 5.4537 0 0.74816-0.75184 1.4706-3.0294 2.9111-1.2531 0.79251-3.0754 1.947-4.0496 2.5654-2.1569 1.3693-2.9399 1.4249-3.9056 0.27724zm-24.476-10.494c-1.1855-0.46404-5.2557-3.0573-5.5911-3.5624-0.0957-0.14409-0.32172-1.4212-0.50228-2.8379-0.56817-4.4584-0.0164-6.9225 1.928-8.6095 0.4873-0.42278 2.6077-1.8766 4.7119-3.2307 7.4536-4.7964 16.839-10.82 20.467-13.136 5.3031-3.3851 6.3869-3.3905 11.273-0.0564l2.7781 1.8958 0.44583 2.9104c0.61248 3.9983 0.58924 5.0485-0.14633 6.6146-0.76851 1.6362-0.69126 1.5725-5.9219 4.8801-2.3647 1.4953-4.2995 2.8426-4.2995 2.994 0 0.15133 0.59531 1.2032 1.3229 2.3375 0.7276 1.1343 1.3179 2.2177 1.3117 2.4077-6e-3 0.18996-0.45265 0.63202-0.99219 0.98237-5.54 3.5973-9.1188 5.8453-9.3058 5.8453-0.12475 0-0.9018-1.0697-1.7268-2.3771l-1.4999-2.3772-0.70654 0.39104c-0.38859 0.21507-2.1948 1.3598-4.0138 2.5438-1.819 1.184-3.6904 2.3159-4.1587 2.5153-1.1783 0.50177-3.9279 0.43479-5.3732-0.13089zm-42.985-16.073c-2.4086-0.58226-5.0249-2.0052-7.8524-4.2707-1.4066-1.127-3.7784-3.0016-5.2707-4.1658-13.136-10.248-21.893-20.773-28.167-33.853-1.6545-3.4495-4.6181-10.823-4.6181-11.49 0-0.12478-0.34648-1.2844-0.76994-2.577-1.6846-5.1422-3.0062-12.716-3.4571-19.813-0.14794-2.3283-0.2694-14.416-0.26991-26.862-8.3e-4 -20.054 0.0459-22.696 0.41094-23.217l0.41188-0.58803h11.627c13.269 0 12.212-0.24242 10.83 2.4847-0.51135 1.0084-0.7904 1.9582-0.7904 2.6903 0 2.1084 0.54745 1.9687-7.7147 1.9687h-7.3936l0.0978 22.82c0.0946 22.09 0.11679 22.943 0.69269 26.651 1.1077 7.1332 2.1368 11.191 4.4153 17.41 4.0367 11.018 10.233 20.707 18.877 29.517 3.3955 3.4608 8.546 7.7946 17.13 14.414 2.878 2.2193 6.4475 2.632 9.661 1.1172 0.62924-0.29662 3.3467-2.2756 6.0389-4.3976 2.6921-2.1221 5.7633-4.5363 5.7633-4.5363l2.0529-1.7087s1.9534-1.6205 2.3472-1.2937c0.19308 0.16025 1.1546 1.4679 2.1366 2.9058l1.7855 2.6144-1.0235 0.92404c-0.56292 0.50823-2.5713 2.1547-4.4631 3.6588-10.299 8.1882-11.394 8.8974-14.884 9.637-2.2445 0.47565-5.5419 0.45845-7.6024-0.0397zm37.832-13.2c-1.4552-2.1052-3.6274-5.2283-4.827-6.9402-1.1996-1.712-2.961-4.2438-3.9142-5.6262-4.3924-6.3705-5.9722-8.6437-11.413-16.422-3.199-4.5739-6.9274-9.9234-8.2852-11.888-1.3578-1.9645-3.008-4.3458-3.667-5.2917-16.184-23.229-15.547-22.255-16.29-24.91-0.38089-1.3611-0.8663-3.07-1.0787-3.7976-0.21239-0.72761-0.6772-2.454-1.0329-3.8365s-1.4908-5.5496-2.5223-9.2604c-1.0316-3.7108-2.114-7.6398-2.4053-8.7312s-1.0726-3.9209-1.736-6.2878c-0.66349-2.3669-1.1668-4.5086-1.1185-4.7595 0.19194-0.99669 1.0628-0.53809 4.495 2.3672 1.9437 1.6453 4.5439 3.8407 5.7781 4.8787 1.2342 1.038 4.8039 4.0583 7.9326 6.7117 3.1287 2.6534 6.6994 5.6737 7.9348 6.7117 5.2541 4.4144 6.505 5.5482 6.8536 6.2122 0.20277 0.38617 1.4058 2.4285 2.6735 4.5386s3.5319 5.92 5.0317 8.4667c1.4998 2.5466 3.6444 6.178 4.7658 8.0698 4.7441 8.0031 7.2083 12.173 9.7726 16.536 1.4965 2.5466 3.755 6.3127 3.755 6.3127l1.8087 3.0194s5.9607 10.185 10.178 17.259c1.4749 2.4739 3.4419 5.7932 4.3711 7.3762l1.6894 2.8783-0.76918 0.56126c-0.42305 0.3087-2.3796 1.5927-4.348 2.8534-7.3257 4.6919-8.3673 5.3612-9.4791 6.09-0.62575 0.41025-1.2211 0.74365-1.3229 0.74086-0.10185-3e-3 -1.3758-1.7275-2.831-3.8326zm-35.22-1.7699c-1.0199-0.77569-4.7792-3.7432-8.8322-6.9719-7.7026-6.1361-14.145-13.444-18.843-21.377-3.062-5.1699-6.8931-14.35-7.6917-18.431-0.0712-0.3638-0.42658-1.7926-0.78976-3.175-1.7596-6.6983-2.0446-10.948-2.0449-30.499l-2.2e-4 -16.609 9.6391 0.1442 0.59232 2.1167c0.32577 1.1642 1.0876 3.9621 1.6929 6.2177s1.8527 6.78 2.772 10.054 1.9274 6.9652 2.2402 8.2021c1.5767 6.2339 1.6388 6.3735 4.9581 11.144 1.7096 2.457 3.7439 5.3899 4.5205 6.5174 7.7622 11.167 15.023 21.605 22.533 32.375 1.2369 1.7736 3.1085 4.4785 4.159 6.011l1.91 2.7864-1.6145 1.461c-3.1906 3.1421-11.758 10.27-13.835 10.613-0.33148 0-0.94617-0.26124-1.366-0.58054zm45.463-33.799c-1.1952-2.0283-2.1731-3.863-2.1731-4.0772 0-0.21419 0.36444-1.5015 0.80988-2.8607 0.93422-2.8507 2.3542-8.4315 3.1196-12.261 0.95874-4.7966 1.1388-10.198 1.0496-31.485l-0.0843-20.108-10.319-0.15891c-11.217-0.17274-12.109-0.27709-16.801-1.9661-5.1334-1.8478-8.0552-3.6541-15.715-9.7151-1.9769-1.5644-3.6701-2.8443-3.7626-2.8443s-2.8619 1.8898-6.1543 4.1996c-5.7372 4.0249-8.5039 5.8546-8.8529 5.8546-0.08931 0-0.96911-0.6942-1.9551-1.5427-0.986-0.84847-2.3065-1.8669-2.9345-2.2632-0.62798-0.3963-1.0955-0.85927-1.039-1.0288s0.74891-0.65357 1.5387-1.0756c1.3175-0.70401 6.9883-4.3742 7.9182-5.1248 0.21828-0.17618 2.7781-1.9913 5.6885-4.0335 3.372-2.3661 5.5316-3.7137 5.9531-3.7144 0.63428-0.0012 1.5251 0.65242 11.445 8.3968 4.9312 3.8498 8.5168 5.6917 13.398 6.8825 2.7822 0.6787 2.9132 0.68534 15.578 0.78934l12.772 0.10487 0.41006 0.62582c0.36505 0.55714 0.39827 3.4075 0.30273 25.977-0.11357 26.829-0.0774 25.956-1.4063 33.95-0.41395 2.4903-1.2345 6.2752-1.6922 7.8052-0.13059 0.43656-0.55588 1.9248-0.9451 3.3073-0.72321 2.5687-3.5777 10.054-3.8342 10.054-0.0781 1.2e-4 -1.1199-1.6593-2.3151-3.6875zm-8.201-13.841c-0.28315-0.47294-2.1564-3.6579-4.1629-7.0776-2.0064-3.4197-4.2684-7.2297-5.0267-8.4667s-3.925-6.5785-7.0374-11.87l-5.6587-9.6212-3.579-3.0788c-1.9684-1.6933-4.1711-3.575-4.8948-4.1816-14.298-11.983-14.349-12.029-13.77-12.378 0.25336-0.15267 2.1966-1.497 4.3184-2.9874l3.8577-2.7098 0.94817 0.7122c0.5215 0.39171 1.7354 1.3352 2.6976 2.0966 6.1066 4.8326 13.368 8.1345 20.872 9.491 1.6954 0.30646 4.5589 0.49861 8.7974 0.5903l6.2838 0.13595-5e-3 15.379c-6e-3 16.428-0.19933 21.303-1.0544 26.564-0.66886 4.1152-1.6091 8.2619-1.8734 8.2619-0.10921 0-0.43023-0.38695-0.71338-0.8599z" fill="#fff" stroke-width=".26458"/></g></svg>
